<svg width="22" height="25" fill="none" xmlns="http://www.w3.org/2000/svg"><path d="M16.382 12.027c3.795 2.287 5.102 5.845 5.514 9.86.07.681.092 1.373.104 2.064.011.703-.333 1.049-1.032 1.049H1.02C.39 25 0 24.677 0 24.108c0-2.878.424-5.667 1.846-8.244a9.637 9.637 0 013.794-3.826c-1.605-1.818-2.292-3.87-1.845-6.213.32-1.706 1.192-3.123 2.59-4.216a7.459 7.459 0 019.722.401c2.545 2.41 3.256 6.66.275 10.017zm3.772 11.155c-.126-2.287-.482-4.473-1.605-6.481-.791-1.405-1.88-2.52-3.382-3.224a1.02 1.02 0 00-.768 0c-2.281 1.093-4.551 1.093-6.833-.01-.195-.101-.538-.112-.71 0-.677.412-1.388.813-1.95 1.349-2.361 2.298-2.877 5.265-3.083 8.366h18.331zM16.508 7.119c-.011-2.945-2.499-5.332-5.525-5.332-3.027.012-5.492 2.42-5.48 5.377 0 2.945 2.488 5.343 5.514 5.332 3.027-.011 5.491-2.42 5.491-5.377z" fill="#333D48"/></svg>