<svg width="21" height="22" fill="none" xmlns="http://www.w3.org/2000/svg"><path d="M4.004 1.632C4.09.962 3.817.035 4.84.026c1.031 0 .758.919.818 1.58h9.7c0-.258-.008-.507 0-.764.018-.49.333-.833.785-.842.444-.008.802.318.827.807.017.258 0 .516 0 .825h1.117c1.637.017 2.907 1.254 2.907 2.903.008 4.852.008 9.704 0 14.556 0 1.649-1.27 2.903-2.899 2.903-5.072.008-10.144.008-15.216 0-1.602-.009-2.864-1.271-2.873-2.886-.008-4.87-.008-9.73 0-14.6.009-1.622 1.27-2.859 2.882-2.876.366-.009.733 0 1.116 0zM1.618 8.579v10.229c0 1.099.46 1.554 1.551 1.554h14.662c1.1 0 1.56-.455 1.56-1.554V8.58H1.618zm.025-1.683h17.74c0-.867.025-1.717-.009-2.559-.017-.515-.46-.979-.98-1.048-.452-.051-.921-.008-1.407-.008 0 .283.009.524 0 .764-.025.498-.392.859-.844.842-.443-.018-.759-.361-.776-.86-.008-.248 0-.497 0-.738H5.659c0 .267.009.507 0 .747-.017.49-.332.833-.784.85-.452.018-.81-.343-.836-.841-.008-.249 0-.507 0-.773-.468 0-.878-.026-1.287.009-.545.043-1.065.498-1.09 1.03-.052.85-.018 1.71-.018 2.585z" fill="#FF7634"/></svg>