<svg width="23" height="22" fill="none" xmlns="http://www.w3.org/2000/svg"><path d="M11.504.003c2.96 0 5.92.007 8.88-.003 1.098-.003 1.938.422 2.392 1.453.458 1.034.185 1.951-.553 2.767-2.45 2.72-4.885 5.449-7.343 8.164-.283.312-.416.616-.41 1.045.025 1.329-.003 2.657.018 3.985.007.474-.143.817-.512 1.11-1.297 1.032-2.58 2.08-3.865 3.124-.334.274-.669.481-1.109.256-.433-.22-.485-.612-.485-1.048.007-2.407-.01-4.812.014-7.22.007-.556-.143-.964-.522-1.38C5.582 9.59 3.189 6.894.772 4.216.034 3.395-.232 2.48.226 1.447.683.419 1.526-.004 2.626 0c2.959.014 5.919.003 8.878.003zm-1.28 19.331c.789-.64 1.482-1.22 2.192-1.771.263-.204.372-.422.368-.768a83.86 83.86 0 01.01-4.04c.01-.343.165-.748.386-1 1.407-1.62 2.847-3.204 4.278-4.798 1.18-1.318 2.369-2.626 3.526-3.965.167-.193.29-.605.198-.795-.11-.222-.481-.315-.74-.457-.042-.02-.107-.003-.158-.003H2.731c-.143 0-.287-.01-.423.013-.512.094-.74.627-.458 1.07.076.12.181.22.274.328 2.54 2.833 5.072 5.67 7.622 8.493.348.384.502.781.495 1.304-.024 1.833-.01 3.667-.01 5.497-.007.26-.007.519-.007.892z" fill="#FF7634"/></svg>