<svg width="13" height="15" fill="none" xmlns="http://www.w3.org/2000/svg"><path d="M1.083 3.063c-.216 0-.386.007-.548 0C.217 3.043 0 2.818 0 2.527c.007-.292.223-.504.542-.524.088-.007.182 0 .27 0h11.376c.101 0 .203-.007.304.007.298.026.508.245.508.523a.533.533 0 01-.501.53c-.176.014-.359 0-.582 0v9.585c0 1.45-.921 2.352-2.41 2.352h-6.06c-1.436 0-2.37-.915-2.37-2.32V3.5c.006-.132.006-.264.006-.437zm1.084.014v9.597c0 .828.447 1.259 1.3 1.259h6.026c.92 0 1.34-.418 1.34-1.319V3.077H2.167zM6.5 0h1.9c.368 0 .593.188.6.487.006.313-.225.507-.613.513H4.612C4.225 1 3.994.806 4 .494 4.006.18 4.23 0 4.625 0H6.5z" fill="#FF7634"/><path d="M4.998 8.48v2.78c0 .469-.18.732-.487.74-.311.007-.511-.264-.511-.72V5.64c0-.3.075-.572.324-.63a.653.653 0 01.524.146c.107.095.138.345.144.528.012.939.006 1.87.006 2.794zM9 8.5v2.8c0 .43-.187.692-.487.7-.3.007-.507-.255-.513-.678V5.678c0-.423.2-.685.506-.678.3.007.488.263.494.693V8.5z" fill="#FF7634"/></svg>