<svg width="14" height="14" fill="none" xmlns="http://www.w3.org/2000/svg"><g clip-path="url(#clip0_2_511)"><path d="M13.518 6.918c0-.446-.04-.869-.109-1.28H6.977V8.18h3.683a3.14 3.14 0 01-1.367 2.02v1.691h2.198c1.286-1.178 2.027-2.915 2.027-4.972z" fill="#4285F4"/><path d="M6.977 13.53c1.844 0 3.387-.608 4.514-1.64l-2.198-1.691c-.614.406-1.394.654-2.316.654-1.782 0-3.29-1.19-3.832-2.797H.88v1.742a6.828 6.828 0 006.097 3.733z" fill="#34A853"/><path d="M3.145 8.056a3.891 3.891 0 01-.216-1.29c0-.452.08-.886.216-1.292V3.732H.88a6.634 6.634 0 000 6.066l2.265-1.742z" fill="#FBBC05"/><path d="M6.977 2.678c1.007 0 1.907.344 2.618 1.015l1.947-1.928C10.364.67 8.821 0 6.977 0A6.828 6.828 0 00.88 3.732l2.265 1.742c.541-1.607 2.05-2.796 3.832-2.796z" fill="#EA4335"/></g><defs><clipPath id="clip0_2_511"><path fill="#fff" d="M0 0h13.663v13.531H0z"/></clipPath></defs></svg>