<svg width="16" height="16" fill="none" xmlns="http://www.w3.org/2000/svg"><path d="M2.637 2.168c0 .526-.006 1.016 0 1.506.006.892.697 1.406 1.574 1.182.46-.118.782-.473.811-.945.024-.45.012-.904.018-1.359v-.366h5.321c0 .472.018.933-.006 1.394-.06 1.14.889 1.494 1.777 1.21.424-.135.615-.436.62-.932.007-.55 0-1.1 0-1.666.591 0 1.17-.036 1.737.012.441.035.745.437.775.886.006.088.006.177.006.265v11.283c0 .81-.364 1.176-1.181 1.176H1.175C.37 15.814 0 15.447 0 14.638V3.326c0-.792.364-1.152 1.163-1.158h1.474zM14.28 14.821v-8.79H1.002v8.79H14.28z" fill="#3E63F6"/><path d="M10.85 2.664c0-.366-.006-.726 0-1.093.012-.395.25-.62.668-.632.447-.012.728.19.74.585.018.756.018 1.512 0 2.274-.012.402-.287.609-.728.603-.435-.006-.668-.23-.686-.644v-.06c.006-.348.006-.69.006-1.033zM4.545 2.7c0 .366.006.726 0 1.092-.012.402-.25.615-.674.62-.453.007-.721-.188-.727-.59a47.916 47.916 0 010-2.268c.012-.402.28-.597.733-.591.424.006.656.213.668.62.012.372 0 .744 0 1.117zm4.438 6.267c-.238 0-.477-.006-.716 0-.172.006-.256-.06-.256-.236.006-.432-.012-.863.012-1.294.006-.083.143-.219.22-.224.514-.018 1.033-.006 1.546-.012.178 0 .238.082.238.254-.006.42-.006.844 0 1.264 0 .177-.066.248-.244.242-.269 0-.537.006-.8.006zm2.899 0c-.25 0-.495-.006-.746 0-.196.012-.268-.07-.262-.26a43.06 43.06 0 000-1.235c0-.183.06-.271.256-.271a64.73 64.73 0 001.515 0c.18 0 .245.07.245.248-.006.42-.012.845 0 1.264.006.2-.083.26-.268.248-.245 0-.495.006-.74.006zm-8.589 2.47c-.25 0-.495-.006-.746 0-.185.005-.274-.066-.268-.26.006-.42.006-.845 0-1.265 0-.177.071-.242.25-.242.507.006 1.014.006 1.515 0 .173 0 .25.053.25.237-.005.419-.011.844 0 1.264.007.195-.07.266-.262.26-.244 0-.489.006-.74.006zm2.881-1.761c.25 0 .495.006.745 0 .173-.006.25.06.25.242-.005.432-.005.863 0 1.294 0 .166-.077.23-.232.23-.513 0-1.032.012-1.545-.011-.083-.006-.22-.136-.226-.219a13.988 13.988 0 010-1.323c.006-.07.131-.19.208-.2.263-.03.531-.013.8-.013zm2.846 1.761c-.257 0-.52.017-.77-.012-.084-.012-.221-.142-.227-.219-.024-.431-.006-.862-.012-1.293 0-.178.078-.243.256-.237.508.006 1.015.006 1.516 0 .178 0 .25.065.244.242-.006.42-.012.845 0 1.265.006.194-.083.26-.268.254-.245-.006-.495 0-.74 0zm2.856-1.761c.257 0 .513.006.776 0 .155-.006.244.041.244.213-.006.443-.006.886 0 1.323 0 .171-.084.224-.239.224-.513 0-1.031.012-1.544-.011-.078-.006-.215-.142-.221-.225-.024-.431-.006-.862-.012-1.294 0-.177.083-.242.256-.236.245.012.49.006.74.006zM3.31 12.145c.257 0 .52-.018.776.012.078.006.197.13.203.2.018.444.018.887 0 1.33-.006.07-.131.195-.209.2-.525.019-1.05.019-1.58 0-.072 0-.203-.13-.21-.206a16.464 16.464 0 010-1.329c.007-.07.132-.189.215-.195.269-.024.537-.012.806-.012zm2.834 0c.257 0 .519.006.775 0 .18-.005.245.071.245.248-.006.414-.006.828 0 1.241.006.183-.054.272-.256.266a65.355 65.355 0 00-1.522 0c-.178 0-.244-.077-.244-.248.006-.425.006-.845 0-1.27 0-.183.083-.242.256-.237.251.006.501 0 .746 0zm2.875 1.749c-.257 0-.519-.006-.775 0-.162.006-.24-.065-.233-.225.006-.43.006-.868 0-1.3 0-.165.071-.224.233-.224.518.006 1.031.006 1.55 0 .161 0 .233.06.233.225-.006.43-.006.868 0 1.3 0 .165-.072.23-.233.224H9.02zm2.869 0c-.256 0-.519-.006-.775 0-.161.006-.239-.065-.233-.224.006-.432.006-.869 0-1.3 0-.16.072-.23.233-.224a67.94 67.94 0 001.55 0c.162 0 .233.059.233.224-.006.431-.006.868 0 1.3 0 .165-.071.23-.232.224h-.776z" fill="#3E63F6"/></svg>