<svg width="25" height="29" fill="none" xmlns="http://www.w3.org/2000/svg"><path d="M16.028 25.428c-.97 2.444-2.42 3.583-4.556 3.572-2.113 0-3.586-1.172-4.5-3.572-1.599 0-3.22-.011-4.831.011-.845.011-1.542-.223-1.941-1.004-.389-.748-.172-1.418.32-2.077 1.85-2.478 1.838-2.489 1.85-5.547.01-1.708-.08-3.427.114-5.124.48-4.197 4.225-7.512 8.52-7.68 4.51-.178 8.485 2.747 9.387 6.977.149.67.217 1.362.229 2.043.034 1.987-.023 3.974.034 5.972.011.49.205 1.015.468 1.44.422.725.948 1.384 1.45 2.064.457.614.571 1.25.229 1.932-.354.703-.971 1.004-1.77 1.004-1.68-.011-3.347-.011-5.003-.011zm5.094-1.82l-1.587-2.243a3.714 3.714 0 01-.731-2.3c.011-2.009.011-4.018 0-6.027 0-.558-.046-1.116-.172-1.663-.822-3.56-4.248-5.983-7.834-5.581-3.815.435-6.578 3.415-6.59 7.132a346.782 346.782 0 000 5.972c.012.971-.251 1.83-.834 2.6-.502.67-.97 1.363-1.496 2.1 6.442.01 12.791.01 19.244.01zM8.982 25.45c.4 1.161 1.565 1.876 2.775 1.753 1.085-.1 2.079-.893 2.204-1.753h-4.98z" fill="#333D48"/><circle cx="18" cy="7" r="7" fill="#FF7634"/><path d="M18.52 10h-1.27V5.104l-1.516.47V4.543l2.65-.95h.136V10z" fill="#fff"/></svg>