<svg width="15" height="12" fill="none" xmlns="http://www.w3.org/2000/svg"><path d="M9.168 3.603h3.899c.657 0 .955.262.955.826v6.752c0 .563-.306.82-.963.82H5.185c-.657 0-.955-.263-.955-.827V4.422c0-.563.306-.819.963-.819 1.322-.007 2.653 0 3.975 0z" fill="#3E63F6"/><path d="M8.3 1.306H1.555v5.787c.219 0 .43-.006.635 0 .507.012.845.266.852.64.007.376-.33.648-.831.66-.458.006-.916.012-1.374 0-.508-.012-.804-.266-.804-.707V.7c0-.44.303-.7.818-.7h8.14c.514 0 .81.248.824.69.014.392.014.785 0 1.178-.007.43-.331.72-.768.714-.423-.006-.726-.29-.747-.701-.007-.182 0-.363 0-.575z" fill="#3E63F6"/></svg>