<svg width="21" height="21" fill="none" xmlns="http://www.w3.org/2000/svg"><path d="M4.004 1.558C4.09.918 3.817.033 4.84.025c1.031 0 .758.877.818 1.508h9.7c0-.246-.008-.484 0-.73.018-.467.333-.795.785-.803a.792.792 0 01.827.77c.017.247 0 .493 0 .788h1.117c1.637.016 2.907 1.197 2.907 2.77.008 4.632.008 9.263 0 13.895 0 1.574-1.27 2.77-2.899 2.77-5.072.009-10.144.009-15.216 0C1.277 20.987.015 19.782.006 18.24c-.008-4.648-.008-9.288 0-13.936.009-1.55 1.27-2.73 2.882-2.746.366-.009.733 0 1.116 0zM1.618 8.189v9.764c0 1.049.46 1.483 1.551 1.483h14.662c1.1 0 1.56-.434 1.56-1.483V8.19H1.618zm.025-1.606h17.74c0-.828.025-1.64-.009-2.443-.017-.492-.46-.935-.98-1-.452-.05-.921-.008-1.407-.008 0 .27.009.5 0 .73-.025.475-.392.819-.844.803-.443-.017-.759-.345-.776-.82-.008-.238 0-.476 0-.705H5.659c0 .254.009.483 0 .713-.017.467-.332.795-.784.812-.452.016-.81-.328-.836-.804-.008-.238 0-.483 0-.738-.468 0-.878-.024-1.287.009-.545.04-1.065.475-1.09.983-.052.812-.018 1.632-.018 2.468z" fill="#8E9CA6"/></svg>