<svg width="13" height="10" fill="none" xmlns="http://www.w3.org/2000/svg"><path d="M2.183 5.492h5.621c.098 0 .201.005.3-.01.304-.04.51-.24.505-.486-.006-.236-.201-.427-.495-.468-.098-.014-.201-.009-.299-.009H2.188c-.413-1.15-.82-2.287-1.212-3.424C.862.763.922.44 1.248.195c.32-.232.701-.241 1.07-.11.496.182.98.392 1.463.592a4400.81 4400.81 0 018.155 3.415c.201.081.397.19.555.318.413.34.413.836.005 1.178a2.154 2.154 0 01-.527.313c-3.12 1.31-6.247 2.615-9.368 3.92-.081.032-.163.068-.244.09-.386.124-.772.142-1.098-.1-.337-.245-.392-.577-.278-.918.294-.86.604-1.71.908-2.569.093-.259.185-.527.294-.832z" fill="#fff"/></svg>