<svg width="24" height="23" fill="none" xmlns="http://www.w3.org/2000/svg"><path d="M13.615 15.518h0c.733-.769 1.085-1.7 1.085-2.893.008-.934-.373-1.846-1.074-2.61a.909.909 0 00-.381-.268.512.512 0 00-.472.078 1.07 1.07 0 00-.265.285.832.832 0 00-.137.369h0v.003a.618.618 0 00.108.337c.055.09.124.18.182.255l.022.028h0c.815 1.04.818 2.444-.062 3.363h0a458.306 458.306 0 01-5.374 5.506c-.609.607-1.355.793-2.21.615-.696-.146-1.16-.626-1.647-1.13a41.898 41.898 0 00-.14-.144c-.626-.647-.93-1.325-.93-1.994.001-.668.308-1.346.94-1.993h0c1.064-1.097 2.133-2.19 3.2-3.282l1.6-1.636a1.65 1.65 0 01.078-.073l.007-.007a2.47 2.47 0 00.08-.074.502.502 0 00.142-.214h0l.001-.002c.026-.102.056-.227.067-.35a.668.668 0 00-.05-.363.67.67 0 00-.271-.258.773.773 0 00-.358-.104c-.114 0-.23.05-.328.111a1.652 1.652 0 00-.274.216h0l-.002.001a336.999 336.999 0 00-3.014 3.08c-.216.222-.436.441-.656.662a33.24 33.24 0 00-1.58 1.656c-1.339 1.525-1.33 3.736-.01 5.26h0c.347.4.71.772 1.1 1.126h0c1.558 1.416 3.817 1.39 5.307-.109a392.326 392.326 0 004.732-4.842l.584-.605z" fill="#8E9CA6" stroke="#8E9CA6" stroke-width=".2"/><path d="M10.388 7.524h0a401.866 401.866 0 015.377-5.51h0C17.213.57 19.454.534 20.97 1.887c.416.364.805.763 1.16 1.19a3.98 3.98 0 010 5.223h0c-.31.36-.64.695-.97 1.03-.148.15-.296.3-.442.452h0l-3.762 3.854a4.155 4.155 0 00-.055.058c-.08.086-.172.183-.28.247a.705.705 0 01-.47.132.682.682 0 01-.43-.237.745.745 0 01-.209-.45.687.687 0 01.16-.47c.098-.134.218-.252.333-.364.042-.04.082-.08.121-.12l4.586-4.698c.67-.688.993-1.374.99-2.051-.003-.677-.332-1.366-1.007-2.059a36.778 36.778 0 01-.093-.095c-.477-.491-.923-.95-1.592-1.1h0c-.863-.195-1.625 0-2.243.615a453.585 453.585 0 00-5.34 5.471h0c-.857.895-.91 2.248-.172 3.25.028.037.06.075.091.115h.001l.095.12c.15.186.234.377.235.564a.673.673 0 01-.236.503m-1.052-5.543l1.051 5.544v-.001m-1.05-5.543c-.72.754-1.067 1.675-1.067 2.33m1.066-2.33l-.027 5.414m1.079.129a.648.648 0 01-.54.192c-.193-.024-.378-.137-.54-.32m1.08.128l-1.08-.129M9.323 9.853c-.009 1.444.34 2.342 1.039 3.085M9.32 9.853s0 0 0 0h.1-.1s0 0 0 0z" fill="#8E9CA6" stroke="#8E9CA6" stroke-width=".2"/></svg>