<svg width="18" height="21" fill="none" xmlns="http://www.w3.org/2000/svg"><path d="M16.468 6.349H1.519c-1.04 0-1.506.32-1.532 1.018-.027.726.48 1.075 1.532 1.089h14.935c1.053 0 1.56-.349 1.533-1.089 0-.697-.48-1.018-1.52-1.018zm0 6.265H1.519c-1.04 0-1.506.321-1.532 1.019-.027.725.48 1.074 1.532 1.088h14.935c1.053 0 1.56-.349 1.533-1.088 0-.712-.48-1.019-1.52-1.019zM5.982 21c-1.625 0-3.237.014-4.863 0-.68-.014-1.106-.433-1.106-1.033 0-.6.413-1.004 1.093-1.046.16-.014.306 0 .466 0h9.313c.68.042 1.106.432 1.106 1.046 0 .6-.413 1.033-1.092 1.047-1.626 0-3.265-.014-4.917-.014zM5.955 2.093H1.292c-.786 0-1.239-.377-1.266-1.019C0 .42.48 0 1.292 0h9.46c.786 0 1.239.377 1.265 1.019.027.67-.452 1.074-1.265 1.074-1.612.014-3.211 0-4.797 0z" fill="#8E9CA6"/></svg>