<svg width="25" height="24" fill="none" xmlns="http://www.w3.org/2000/svg"><path d="M23.207 3.942v.003c-.022.828-.395 1.55-1.039 2.184-3.342 3.29-6.663 6.582-9.995 9.884l-.03.03h0c-.6.59-1.197 1.18-1.795 1.771a647.333 647.333 0 01-3.595 3.537L23.207 3.942zm0 0c-.021-1.242-.764-2.352-1.87-2.771h0-.001c-.63-.23-1.23-.28-1.792-.154-.563.126-1.085.427-1.56.895h0A17456.358 17456.358 0 002.421 17.278l.035.036-.035-.036c-.147.145-.302.328-.358.526v.001c-.376 1.43-.731 2.86-1.076 4.29l22.22-18.153zm-1.725-1.32h0c.465.448.635.945.525 1.477-.108.527-.492 1.096-1.157 1.689-.844-.832-1.689-1.664-2.553-2.525.59-.633 1.166-1.004 1.699-1.114.54-.112 1.043.04 1.486.473zm-3.504 5.93A12752.97 12752.97 0 016.091 20.267a622.4 622.4 0 00-.813-.8c-.56-.548-1.125-1.102-1.685-1.66 3.935-3.874 7.922-7.8 11.877-11.707l1.255 1.226c.418.41.837.82 1.253 1.224zm.96-.904a607.26 607.26 0 00-2.53-2.501l.447-.445.004-.005.46-.457c.843.84 1.686 1.671 2.54 2.511-.294.289-.62.61-.92.897zM3.972 20.076l.841.841-.919.231c-.51.128-1.03.259-1.587.397l.276-1.087c.12-.474.237-.937.36-1.411l1.029 1.029zM24.4 21.953c-.093-.053-.23-.045-.366-.037-.05.003-.1.006-.146.006H9.787l-.125-.003c-.14-.006-.282-.011-.387.044-.177.103-.407.298-.407.442 0 .185.198.391.355.535l15.175-.987zm0 0c.177.103.417.308.427.473l-.428-.473zm.024-.044h0a.515.515 0 00-.262-.049c-.043 0-.088.003-.13.006h-.01a2.28 2.28 0 01-.134.006h-14.1l-.123-.003h-.01a2.658 2.658 0 00-.14-.004.58.58 0 00-.262.054h0-.002a1.457 1.457 0 00-.28.214.713.713 0 00-.106.131.279.279 0 00-.046.141c0 .11.058.218.129.313.072.096.163.186.242.258.056.055.141.068.216.07.04.002.08 0 .118-.001h.02c.031-.002.06-.004.087-.004h14.413c.03 0 .061.002.096.004h.011c.038.002.078.004.117.003.075-.001.16-.011.216-.06.084-.072.183-.162.26-.257.076-.093.14-.2.133-.308h0a.34.34 0 00-.053-.152.792.792 0 00-.112-.14 1.425 1.425 0 00-.288-.222v0z" fill="#8E9CA6" stroke="#8E9CA6" stroke-width=".1"/></svg>