<svg width="19" height="24" fill="none" xmlns="http://www.w3.org/2000/svg"><g clip-path="url(#clip0_2_1071)" fill="#8E9CA6"><path d="M0 8.88C.09 4.418 3.966.36 9.08.019c4.716-.314 9.08 3.383 9.82 8.262.262 1.738-.054 3.355-.784 4.907-1.218 2.579-2.904 4.825-4.735 6.96-1.037 1.2-2.128 2.347-3.219 3.493-.442.462-.866.47-1.29.037-2.84-2.865-5.5-5.887-7.475-9.464-.803-1.441-1.46-2.957-1.398-5.332zm9.567 13.198c.144-.213.234-.38.351-.527 1.29-1.506 2.616-2.976 3.86-4.52 1.2-1.496 2.245-3.104 3.02-4.879.497-1.127.695-2.291.506-3.511-.721-4.5-4.419-7.366-8.855-6.876-3.508.388-6.547 3.65-6.818 7.255-.117 1.57.38 2.948 1.11 4.27 1.776 3.243 4.184 5.978 6.826 8.788z"/><path d="M9.55 5.6c2.254.019 4.048 1.904 4.03 4.223-.018 2.292-1.902 4.178-4.13 4.14-2.254-.036-4.049-1.922-4.03-4.232.017-2.31 1.866-4.159 4.13-4.13zm-.046 1.673c-1.343 0-2.434 1.09-2.452 2.458-.019 1.386 1.09 2.542 2.434 2.542 1.344.009 2.462-1.146 2.453-2.533a2.46 2.46 0 00-2.435-2.467z"/></g><defs><clipPath id="clip0_2_1071"><path fill="#fff" d="M0 0h19v24H0z"/></clipPath></defs></svg>