<svg width="28" height="28" fill="none" xmlns="http://www.w3.org/2000/svg"><path d="M14.015 0C21.722 0 28.01 6.31 28 14.03 27.99 21.73 21.702 28 14.015 28 6.288 28 0 21.72 0 14S6.288 0 14.015 0zm.04 15.5c.09.09.22.19.33.31l2.969 2.97c.6.6 1.19.67 1.65.22.469-.46.41-1.06-.19-1.65-.99-.99-1.99-1.97-2.99-2.94-.13-.12-.41-.29-.57-.38.03-.08.08-.11.17-.13.21-.17.42-.32.61-.51.95-.93 1.9-1.87 2.85-2.81.5-.5.54-1.12.12-1.55-.43-.44-1.04-.41-1.55.09-.93.91-1.84 1.83-2.76 2.76-.22.22-.4.48-.619.73-.22-.21-.35-.32-.46-.43-1-1-2-2.01-3.009-3-.51-.51-1.18-.5-1.58-.01-.35.44-.3.97.16 1.43 1 1.01 2 2 3 3.01.12.12.24.26.43.47-.61.57-1.19 1.1-1.75 1.65-.62.61-1.23 1.22-1.82 1.85-.42.45-.39 1.04.01 1.43.39.37.96.37 1.4-.02.14-.12.26-.26.39-.39 1.06-1.01 2.11-2.03 3.209-3.1z" fill="#FF7634"/></svg>