<svg width="24" height="24" fill="none" xmlns="http://www.w3.org/2000/svg"><path d="M24 11.902C23.99 18.626 18.637 24.008 11.972 24 5.316 23.981-.01 18.57 0 11.845.01 5.308 5.4 0 12 0c6.637 0 12.01 5.327 12 11.902zM11.963 22.049c5.015.047 9.984-3.395 10.134-10.1.131-5.506-4.51-10.073-10.06-10.083C6.478 1.857 1.82 6.368 1.903 11.883c.094 6.593 4.96 10.176 10.06 10.166z" fill="#8E9CA6"/><path d="M14.934 16.694a.915.915 0 01-.665-.281l-3.62-3.668V6.734a.94.94 0 01.938-.938.94.94 0 01.938.938v5.242L15.6 15.1a.938.938 0 01-.666 1.594z" fill="#8E9CA6"/></svg>