<svg width="29" height="29" fill="none" xmlns="http://www.w3.org/2000/svg"><path d="M26.331 6.375c-.249.51-.418.962-.679 1.358-1.03 1.493-1.041 1.493-.26 3.122.068.147.294.283.464.317.51.113 1.041.181 1.562.272.996.18 1.562.837 1.573 1.833.012.814.012 1.617 0 2.432-.011.996-.6 1.663-1.573 1.844-.373.068-.747.181-1.11.181-.69 0-.87.43-1.176.95-.532.94-.34 1.641.35 2.331.136.136.227.306.329.464.543.826.498 1.652-.181 2.376-.566.6-1.155 1.188-1.755 1.765-.724.679-1.55.735-2.377.192-.045-.034-.101-.056-.135-.102-.928-1.007-1.97-1.142-3.101-.373-.182.124-.374.317-.42.509-.135.486-.18.996-.27 1.505-.193 1.052-.85 1.629-1.902 1.64-.793.012-1.585.012-2.377 0-.996-.011-1.664-.588-1.845-1.572-.068-.374-.193-.747-.181-1.11.011-.69-.419-.882-.951-1.176-.883-.497-1.528-.316-2.184.306-.182.17-.397.294-.6.43-.77.509-1.607.475-2.287-.147a36.744 36.744 0 01-1.878-1.879c-.612-.667-.668-1.47-.159-2.228.306-.475.68-.905.973-1.392.102-.158.08-.407.057-.6-.011-.124-.136-.237-.158-.361-.204-1.177-.996-1.471-2.072-1.584-1.55-.181-2.003-.781-2.003-2.32 0-.678-.011-1.357 0-2.036.023-.928.543-1.573 1.437-1.776.555-.125 1.11-.227 1.664-.295.317-.034.464-.18.532-.475.057-.215.102-.464.238-.633.532-.713.249-1.256-.215-1.878-1.302-1.754-1.245-2.207.305-3.745.385-.385.77-.78 1.166-1.154.69-.622 1.506-.679 2.287-.159.407.272.826.543 1.188.86.34.294.645.317 1.007.068a.848.848 0 01.306-.147c1.018-.136 1.324-.803 1.358-1.72.011-.282.09-.554.147-.837.215-.871.85-1.403 1.732-1.414a47.776 47.776 0 012.546 0c.917.023 1.551.543 1.755 1.46.124.554.181 1.12.317 1.663.045.192.238.373.419.497.203.136.486.125.679.272.747.554 1.37.34 1.98-.238.147-.147.329-.249.498-.362.996-.701 1.8-.633 2.672.227.52.52 1.075 1.006 1.55 1.572.317.35.498.803.758 1.267zm-21.98.045c.544.759 1.019 1.437 1.506 2.105.271.373.283.724.09 1.154a27.13 27.13 0 00-.94 2.296c-.146.408-.373.68-.826.747-.656.102-1.301.238-1.946.317-.419.057-.634.192-.6.679a10.62 10.62 0 010 1.697c-.034.475.181.622.6.667.634.08 1.256.227 1.89.306.498.068.747.328.917.792.283.758.6 1.505.94 2.229.203.44.214.814-.08 1.21-.408.543-.781 1.109-1.189 1.652-.192.249-.226.43.023.667.498.464.95.973 1.46 1.426.113.102.419.124.555.045.6-.384 1.177-.803 1.754-1.233.396-.294.77-.294 1.211-.09.69.328 1.404.644 2.14.882.52.17.769.464.848.996.09.656.226 1.3.317 1.946.045.316.159.463.498.463a57.868 57.868 0 011.98 0c.34.012.454-.147.499-.463.09-.657.237-1.302.317-1.946.068-.532.328-.826.849-.996a14.542 14.542 0 002.127-.883c.51-.26.906-.237 1.347.102.623.476 1.28.917 1.958 1.403.612-.61 1.211-1.188 1.766-1.799.09-.09.068-.384-.023-.52-.373-.588-.792-1.154-1.2-1.708-.294-.385-.316-.758-.101-1.211.35-.747.668-1.516.95-2.285.159-.442.43-.68.883-.758.69-.102 1.37-.25 2.06-.34.328-.045.453-.192.442-.509a35.225 35.225 0 010-1.923c.011-.362-.136-.487-.487-.532-.656-.08-1.302-.226-1.947-.317-.498-.068-.792-.305-.962-.803a21.24 21.24 0 00-.928-2.24c-.215-.441-.204-.815.08-1.21a36.13 36.13 0 001.21-1.709c.08-.124.148-.396.068-.475-.577-.634-1.2-1.233-1.81-1.856-.725.52-1.393.985-2.038 1.471-.373.272-.724.294-1.154.102a34.359 34.359 0 00-2.4-.984c-.407-.159-.656-.396-.724-.838-.102-.69-.238-1.369-.34-2.059-.045-.305-.158-.475-.51-.463-.656.022-1.323.01-1.98 0-.305-.012-.441.113-.487.407-.101.69-.248 1.369-.35 2.059-.08.509-.34.78-.827.95-.747.26-1.471.577-2.184.917-.464.226-.849.215-1.256-.09a33.899 33.899 0 00-1.687-1.19c-.124-.079-.407-.079-.51.023-.61.543-1.176 1.12-1.799 1.72z" fill="#333D48"/><path d="M20.88 14.488a6.359 6.359 0 01-6.374 6.392 6.369 6.369 0 01-6.386-6.392 6.363 6.363 0 016.35-6.368 6.354 6.354 0 016.41 6.368zm-6.363-4.704c-2.58 0-4.72 2.115-4.731 4.704-.012 2.577 2.105 4.716 4.685 4.739 2.591.023 4.766-2.139 4.766-4.727-.012-2.59-2.14-4.716-4.72-4.716z" fill="#333D48"/></svg>