<svg width="15" height="15" fill="none" xmlns="http://www.w3.org/2000/svg"><path d="M1.14 15c-.733 0-1.213-.539-1.13-1.206.093-.797.24-1.582.298-2.378.047-.65.345-1.113.797-1.564C4.238 6.75 7.349 3.622 10.47.506c.674-.674 1.277-.674 1.945-.006.72.714 1.435 1.435 2.15 2.155.58.586.58 1.23-.006 1.821-3.234 3.233-6.473 6.466-9.706 9.704-.329.328-.715.434-1.154.486-.88.1-1.758.229-2.56.334zM8.913 4.16c-.03.024-.07.047-.1.082-2.296 2.29-4.586 4.574-6.87 6.87-.054.052-.112.122-.118.187-.1.709-.193 1.423-.287 2.173.691-.088 1.347-.164 1.997-.27a.848.848 0 00.446-.222c2.226-2.214 4.446-4.44 6.666-6.653.076-.076.181-.117.264-.164A673.62 673.62 0 008.913 4.16zm1.101-1.066c.627.627 1.266 1.271 1.886 1.898.48-.48.967-.967 1.436-1.44L11.444 1.66c-.463.468-.944.948-1.43 1.434z" fill="#333D48"/></svg>