<svg width="29" height="19" fill="none" xmlns="http://www.w3.org/2000/svg"><path d="M21.582 18.672h0c-.217.01-.387-.06-.51-.211-.117-.144-.183-.353-.226-.607m.736.818l-.638-.835m.638.835c.205-.01.373-.086.485-.24.108-.15.15-.36.142-.614l-.627.854zm-.736-.818l.098-.017m-.098.017s0 0 0 0l.098-.017m-.098.017a41.005 41.005 0 01-.073-.444c-.104-.656-.208-1.31-.445-1.898m.616 2.325l-.071-.438c-.104-.657-.21-1.325-.452-1.925m-.093.038s0 0 0 0l.093-.038m-.093.038c-1.104-2.708-4.02-4.286-6.827-3.788h0c-3.02.533-5.178 2.942-5.344 5.933v.001l-.007.119c-.004.087-.008.18-.02.268v.002h0a.778.778 0 01-.246.483.644.644 0 01-.496.141h-.001 0a.657.657 0 01-.454-.226c-.102-.127-.145-.293-.15-.479v-.001c-.008-1.148.258-2.234.736-3.267h0v-.001l.2-.42c-.872-.348-1.72-.363-2.58-.116a4.002 4.002 0 00-2.873 3.673h0c-.014.263-.073.476-.194.623-.125.152-.302.22-.516.215h-.002 0a.622.622 0 01-.505-.254c-.111-.157-.157-.374-.148-.634.086-3.564 3.751-6.047 7.172-4.826l.307.107.14.05a14.442 14.442 0 00.332-.35c3.037-3.335 8.38-3.292 11.374.086h0a7.004 7.004 0 00.28.297m-.178 2.364s0 0 0 0l.093-.038m0 0l.086-2.326M2.166 17.829c-.026.506-.228.751-.608.743-.38-.017-.574-.287-.557-.785.084-3.494 3.68-5.933 7.039-4.735l.506.177s.194-.194.38-.396c2.996-3.292 8.271-3.25 11.225.084.127.143.338.354.338.354s.244-.135.37-.185L2.167 17.829zm0 0a4.102 4.102 0 012.945-3.764c.881-.253 1.755-.238 2.65.122l-5.595 3.642zm18.34-4.681a3.088 3.088 0 01.316-.155l.003-.001h0a5.385 5.385 0 017.258 4.522m-7.576-4.366l6.328 4.825-.1.002c.005.198.06.37.178.495.118.126.287.192.491.202.2.01.375-.06.5-.192a.786.786 0 00.196-.53h0v-.005c0-.142 0-.282-.018-.43m0 0s0 0 0 0l-.099.01.1-.011s0 0 0 0zm-5.952-.64c-.183-.72-.394-1.428-.614-2.168l-.14-.472a.811.811 0 01.103-.04h0l.003-.002c1.778-.592 3.788.182 4.718 1.82l-3.994 1.654c-.005-.256-.01-.533-.076-.791zm0 0l-.097.026.097-.025s0 0 0 0zM7.61 14.74l.201-.425-.202.425h0zm2.676-9.621h0c.017 2.3 1.902 4.176 4.202 4.176 2.325 0 4.218-1.884 4.218-4.202A4.203 4.203 0 0014.487.9c-2.325.009-4.21 1.902-4.201 4.219zm1.373-.026a2.836 2.836 0 012.83-2.828 2.834 2.834 0 012.853 2.796 2.845 2.845 0 01-2.83 2.87 2.837 2.837 0 01-2.853-2.838zM6.36 11.65h0a3.036 3.036 0 003.03-3.03c0-1.666-1.36-3.037-3.02-3.037a3.047 3.047 0 00-3.03 3.03 3.052 3.052 0 003.02 3.037zm1.673-3.037a1.68 1.68 0 01-1.68 1.672 1.683 1.683 0 01-1.657-1.688c.008-.914.789-1.664 1.696-1.657.908.025 1.64.774 1.64 1.673zm14.683-3.029a3.028 3.028 0 00.01 6.057c1.666-.008 3.028-1.378 3.02-3.037-.01-1.658-1.379-3.028-3.03-3.02zm0 0s0 0 0 0v.1-.1s0 0 0 0zm0 4.701a1.687 1.687 0 01-1.672-1.64 1.69 1.69 0 011.657-1.696c.923-.008 1.68.74 1.688 1.656 0 .924-.758 1.68-1.672 1.68z" fill="#FF7634" stroke="#FF7634" stroke-width=".2"/></svg>